<svg xmlns="http://www.w3.org/2000/svg" width="900" height="506" viewBox="0 0 900 506" role="img" aria-label="Tecnologias usadas nos projetos">
  <title>Tecnologias usadas nos projetos</title>
  <style>
    .cat { font-family: -apple-system, BlinkMacSystemFont, 'Segoe UI', 'Noto Sans', Helvetica, Arial, sans-serif; font-size: 14px; font-weight: 600; fill: #9198a1; }
    .chip { font-family: -apple-system, BlinkMacSystemFont, 'Segoe UI', 'Noto Sans', Helvetica, Arial, sans-serif; font-size: 13px; fill: #f0f6fc; }
    .titulo { font-family: ui-monospace, SFMono-Regular, 'SF Mono', Menlo, Consolas, monospace; font-size: 13px; letter-spacing: 2px; fill: #a78bfa; }
  </style>
  <rect x="0.5" y="0.5" width="899" height="505" rx="15.5" fill="#0d1117" stroke="#30363d"/>
  <text x="32" y="44" class="titulo">STACK · O QUE ESTÁ RODANDO NOS MEUS REPOSITÓRIOS</text>
  <text x="32" y="92" class="cat">Web</text><g><rect x="170.0" y="74" width="94.0" height="28" rx="8" fill="#161b22" stroke="#30363d"/><text x="217.0" y="92.5" class="chip" text-anchor="middle">TypeScript</text></g><g><rect x="271.0" y="74" width="78.9" height="28" rx="8" fill="#161b22" stroke="#30363d"/><text x="310.5" y="92.5" class="chip" text-anchor="middle">React 19</text></g><g><rect x="357.0" y="74" width="90.6" height="28" rx="8" fill="#161b22" stroke="#30363d"/><text x="402.3" y="92.5" class="chip" text-anchor="middle">Next.js 16</text></g><g><rect x="454.6" y="74" width="48.8" height="28" rx="8" fill="#161b22" stroke="#30363d"/><text x="479.0" y="92.5" class="chip" text-anchor="middle">Vite</text></g><g><rect x="510.4" y="74" width="114.2" height="28" rx="8" fill="#161b22" stroke="#30363d"/><text x="567.5" y="92.5" class="chip" text-anchor="middle">Tailwind CSS 4</text></g><g><rect x="631.5" y="74" width="133.3" height="28" rx="8" fill="#161b22" stroke="#30363d"/><text x="698.2" y="92.5" class="chip" text-anchor="middle">shadcn/ui · Radix</text></g><g><rect x="170.0" y="110" width="124.2" height="28" rx="8" fill="#161b22" stroke="#30363d"/><text x="232.1" y="128.5" class="chip" text-anchor="middle">TanStack Query</text></g><g><rect x="301.2" y="110" width="74.8" height="28" rx="8" fill="#161b22" stroke="#30363d"/><text x="338.6" y="128.5" class="chip" text-anchor="middle">Zustand</text></g><g><rect x="383.0" y="110" width="67.4" height="28" rx="8" fill="#161b22" stroke="#30363d"/><text x="416.6" y="128.5" class="chip" text-anchor="middle">Motion</text></g><g><rect x="457.3" y="110" width="121.1" height="28" rx="8" fill="#161b22" stroke="#30363d"/><text x="517.9" y="128.5" class="chip" text-anchor="middle">PWA · Web Push</text></g><text x="32" y="178" class="cat">Mobile</text><g><rect x="170.0" y="160" width="132.5" height="28" rx="8" fill="#161b22" stroke="#30363d"/><text x="236.2" y="178.5" class="chip" text-anchor="middle">React Native CLI</text></g><g><rect x="309.5" y="160" width="132.5" height="28" rx="8" fill="#161b22" stroke="#30363d"/><text x="375.8" y="178.5" class="chip" text-anchor="middle">React Navigation</text></g><g><rect x="449.0" y="160" width="97.5" height="28" rx="8" fill="#161b22" stroke="#30363d"/><text x="497.8" y="178.5" class="chip" text-anchor="middle">Reanimated</text></g><g><rect x="553.5" y="160" width="103.1" height="28" rx="8" fill="#161b22" stroke="#30363d"/><text x="605.1" y="178.5" class="chip" text-anchor="middle">Android · iOS</text></g><g><rect x="663.6" y="160" width="83.1" height="28" rx="8" fill="#161b22" stroke="#30363d"/><text x="705.2" y="178.5" class="chip" text-anchor="middle">op-sqlite</text></g><g><rect x="753.8" y="160" width="63.9" height="28" rx="8" fill="#161b22" stroke="#30363d"/><text x="785.7" y="178.5" class="chip" text-anchor="middle">Lottie</text></g><text x="32" y="228" class="cat">Backend &amp; dados</text><g><rect x="170.0" y="210" width="97.4" height="28" rx="8" fill="#161b22" stroke="#30363d"/><text x="218.7" y="228.5" class="chip" text-anchor="middle">PostgreSQL</text></g><g><rect x="274.4" y="210" width="79.1" height="28" rx="8" fill="#161b22" stroke="#30363d"/><text x="313.9" y="228.5" class="chip" text-anchor="middle">Prisma 7</text></g><g><rect x="360.5" y="210" width="82.3" height="28" rx="8" fill="#161b22" stroke="#30363d"/><text x="401.6" y="228.5" class="chip" text-anchor="middle">Supabase</text></g><g><rect x="449.8" y="210" width="114.2" height="28" rx="8" fill="#161b22" stroke="#30363d"/><text x="506.9" y="228.5" class="chip" text-anchor="middle">RLS · Realtime</text></g><g><rect x="571.0" y="210" width="120.8" height="28" rx="8" fill="#161b22" stroke="#30363d"/><text x="631.4" y="228.5" class="chip" text-anchor="middle">Edge Functions</text></g><g><rect x="698.8" y="210" width="52.2" height="28" rx="8" fill="#161b22" stroke="#30363d"/><text x="724.8" y="228.5" class="chip" text-anchor="middle">Neon</text></g><g><rect x="757.9" y="210" width="71.4" height="28" rx="8" fill="#161b22" stroke="#30363d"/><text x="793.6" y="228.5" class="chip" text-anchor="middle">Auth.js</text></g><g><rect x="170.0" y="246" width="44.6" height="28" rx="8" fill="#161b22" stroke="#30363d"/><text x="192.3" y="264.5" class="chip" text-anchor="middle">Zod</text></g><g><rect x="221.6" y="246" width="71.4" height="28" rx="8" fill="#161b22" stroke="#30363d"/><text x="257.3" y="264.5" class="chip" text-anchor="middle">Node.js</text></g><g><rect x="300.0" y="246" width="74.8" height="28" rx="8" fill="#161b22" stroke="#30363d"/><text x="337.4" y="264.5" class="chip" text-anchor="middle">Express</text></g><text x="32" y="314" class="cat">Integrações</text><g><rect x="170.0" y="296" width="144.3" height="28" rx="8" fill="#161b22" stroke="#30363d"/><text x="242.2" y="314.5" class="chip" text-anchor="middle">Pix · Mercado Pago</text></g><g><rect x="321.3" y="296" width="59.7" height="28" rx="8" fill="#161b22" stroke="#30363d"/><text x="351.2" y="314.5" class="chip" text-anchor="middle">NFC-e</text></g><g><rect x="388.0" y="296" width="85.8" height="28" rx="8" fill="#161b22" stroke="#30363d"/><text x="430.9" y="314.5" class="chip" text-anchor="middle">WhatsApp</text></g><g><rect x="480.9" y="296" width="116.8" height="28" rx="8" fill="#161b22" stroke="#30363d"/><text x="539.2" y="314.5" class="chip" text-anchor="middle">Telegram bots</text></g><g><rect x="604.6" y="296" width="67.2" height="28" rx="8" fill="#161b22" stroke="#30363d"/><text x="638.2" y="314.5" class="chip" text-anchor="middle">Resend</text></g><g><rect x="678.9" y="296" width="48.1" height="28" rx="8" fill="#161b22" stroke="#30363d"/><text x="702.9" y="314.5" class="chip" text-anchor="middle">MCP</text></g><text x="32" y="364" class="cat">Qualidade</text><g><rect x="170.0" y="346" width="63.9" height="28" rx="8" fill="#161b22" stroke="#30363d"/><text x="201.9" y="364.5" class="chip" text-anchor="middle">Vitest</text></g><g><rect x="240.9" y="346" width="94.1" height="28" rx="8" fill="#161b22" stroke="#30363d"/><text x="287.9" y="364.5" class="chip" text-anchor="middle">Playwright</text></g><g><rect x="342.0" y="346" width="59.7" height="28" rx="8" fill="#161b22" stroke="#30363d"/><text x="371.9" y="364.5" class="chip" text-anchor="middle">pgTAP</text></g><g><rect x="408.7" y="346" width="52.2" height="28" rx="8" fill="#161b22" stroke="#30363d"/><text x="434.8" y="364.5" class="chip" text-anchor="middle">Jest</text></g><g><rect x="467.9" y="346" width="78.3" height="28" rx="8" fill="#161b22" stroke="#30363d"/><text x="507.0" y="364.5" class="chip" text-anchor="middle">Maestro</text></g><g><rect x="553.2" y="346" width="125.0" height="28" rx="8" fill="#161b22" stroke="#30363d"/><text x="615.6" y="364.5" class="chip" text-anchor="middle">Testing Library</text></g><g><rect x="685.1" y="346" width="63.9" height="28" rx="8" fill="#161b22" stroke="#30363d"/><text x="717.0" y="364.5" class="chip" text-anchor="middle">ESLint</text></g><g><rect x="756.0" y="346" width="78.9" height="28" rx="8" fill="#161b22" stroke="#30363d"/><text x="795.4" y="364.5" class="chip" text-anchor="middle">Prettier</text></g><text x="32" y="414" class="cat">Infra</text><g><rect x="170.0" y="396" width="63.9" height="28" rx="8" fill="#161b22" stroke="#30363d"/><text x="201.9" y="414.5" class="chip" text-anchor="middle">Vercel</text></g><g><rect x="240.9" y="396" width="117.4" height="28" rx="8" fill="#161b22" stroke="#30363d"/><text x="299.6" y="414.5" class="chip" text-anchor="middle">GitHub Actions</text></g><g><rect x="365.3" y="396" width="67.2" height="28" rx="8" fill="#161b22" stroke="#30363d"/><text x="398.9" y="414.5" class="chip" text-anchor="middle">Docker</text></g><g><rect x="439.5" y="396" width="67.2" height="28" rx="8" fill="#161b22" stroke="#30363d"/><text x="473.1" y="414.5" class="chip" text-anchor="middle">Sentry</text></g><g><rect x="513.8" y="396" width="137.4" height="28" rx="8" fill="#161b22" stroke="#30363d"/><text x="582.5" y="414.5" class="chip" text-anchor="middle">Vercel Cron · Blob</text></g><text x="32" y="464" class="cat">Design</text><g><rect x="170.0" y="446" width="136.7" height="28" rx="8" fill="#161b22" stroke="#30363d"/><text x="238.3" y="464.5" class="chip" text-anchor="middle">Identidade visual</text></g><g><rect x="313.7" y="446" width="78.9" height="28" rx="8" fill="#161b22" stroke="#30363d"/><text x="353.1" y="464.5" class="chip" text-anchor="middle">Branding</text></g><g><rect x="399.6" y="446" width="59.8" height="28" rx="8" fill="#161b22" stroke="#30363d"/><text x="429.5" y="464.5" class="chip" text-anchor="middle">Figma</text></g><g><rect x="466.4" y="446" width="98.2" height="28" rx="8" fill="#161b22" stroke="#30363d"/><text x="515.5" y="464.5" class="chip" text-anchor="middle">Illustrator</text></g><g><rect x="571.6" y="446" width="89.9" height="28" rx="8" fill="#161b22" stroke="#30363d"/><text x="616.5" y="464.5" class="chip" text-anchor="middle">Photoshop</text></g>
</svg>
